<svg height="16" viewBox="0 0 16 16" width="16" xmlns="http://www.w3.org/2000/svg"><path d="m0 0h16v16h-16z" fill="none"/><path d="m8 4c-2.209 0-4 1.791-4 4s1.791 4 4 4 4-1.791 4-4-1.791-4-4-4zm0 6c-1.103 0-2-.897-2-2s.897-2 2-2 2 .897 2 2-.897 2-2 2zm3-10h-6c-2.763 0-5 2.237-5 5v6c0 2.762 2.237 5 5 5h6c2.762 0 5-2.238 5-5v-6c0-2.763-2.238-5-5-5zm3 11c0 1.653-1.347 3-3 3h-6c-1.653 0-3-1.347-3-3v-6c0-1.653 1.347-3 3-3h6c1.653 0 3 1.347 3 3zm-2-8c-.553 0-1 .447-1 1s.447 1 1 1 1-.447 1-1-.447-1-1-1z"/></svg>